<svg id="Capa_1" enable-background="new 0 0 512 512" height="512" viewBox="0 0 512 512" width="512"  fill="#2eb85c" xmlns="http://www.w3.org/2000/svg"><g><path d="m377 330.986c41.355 0 75-33.645 75-75v-120c0-41.355-33.645-75-75-75s-75 33.645-75 75v120c0 41.355 33.645 75 75 75zm-45-195c0-24.813 20.187-45 45-45s45 20.187 45 45v120c0 24.813-20.187 45-45 45s-45-20.187-45-45z"/><path d="m497 180.986c-8.284 0-15 6.716-15 15v60c0 57.897-47.103 105-105 105s-105-47.103-105-105v-60c0-8.284-6.716-15-15-15s-15 6.716-15 15v60c0 69.369 52.594 126.676 120 134.162v60.838h-45c-8.284 0-15 6.716-15 15s6.716 15 15 15h120c8.284 0 15-6.716 15-15s-6.716-15-15-15h-45v-60.838c67.406-7.486 120-64.793 120-134.162v-60c0-8.285-6.716-15-15-15z"/></g></svg>